<?xml version="1.0" encoding="UTF-8" standalone="no"?>
<!-- Created with Inkscape (http://www.inkscape.org/) -->

<svg
   width="490.87106"
   height="491.41602"
   viewBox="0 0 129.8763 130.02049"
   version="1.1"
   id="svg5"
   xml:space="preserve"
   inkscape:version="1.2.1 (9c6d41e, 2022-07-14)"
   sodipodi:docname="sensordash-placeholder.svg"
   xmlns:inkscape="http://www.inkscape.org/namespaces/inkscape"
   xmlns:sodipodi="http://sodipodi.sourceforge.net/DTD/sodipodi-0.dtd"
   xmlns="http://www.w3.org/2000/svg"
   xmlns:svg="http://www.w3.org/2000/svg"><sodipodi:namedview
     id="namedview7"
     pagecolor="#ffffff"
     bordercolor="#000000"
     borderopacity="0.25"
     inkscape:showpageshadow="2"
     inkscape:pageopacity="0.0"
     inkscape:pagecheckerboard="0"
     inkscape:deskcolor="#d1d1d1"
     inkscape:document-units="mm"
     showgrid="false"
     inkscape:zoom="1.6819304"
     inkscape:cx="258.33411"
     inkscape:cy="156.07067"
     inkscape:window-width="1440"
     inkscape:window-height="779"
     inkscape:window-x="1920"
     inkscape:window-y="25"
     inkscape:window-maximized="1"
     inkscape:current-layer="layer3" /><defs
     id="defs2" /><g
     inkscape:groupmode="layer"
     id="layer3"
     inkscape:label="Ebene 3"
     transform="matrix(1.3557517,0,0,1,-14.390982,-1.190625)"><path
       id="ellipse358"
       style="fill:#000000;fill-opacity:1;stroke-width:2.35335;stroke-linecap:round;stroke-linejoin:round"
       inkscape:label="ellipse358"
       d="M 58.513028,1.190625 A 47.898354,65.010178 0 0 0 10.614762,66.20061 47.898354,65.010178 0 0 0 58.513028,131.21111 47.898354,65.010178 0 0 0 106.41129,66.20061 47.898354,65.010178 0 0 0 58.513028,1.190625 Z m -0.05794,36.495964 A 21.037159,28.593067 0 0 1 79.492318,66.279675 21.037159,28.593067 0 0 1 58.455091,94.872762 21.037159,28.593067 0 0 1 37.417864,66.279675 21.037159,28.593067 0 0 1 58.455091,37.686589 Z" /></g><g
     inkscape:groupmode="layer"
     id="g944"
     inkscape:label="Ebene 3 Kopie"
     transform="translate(-1.0795206,-1.190625)" /><g
     inkscape:groupmode="layer"
     id="layer2"
     inkscape:label="Ebene 2"
     transform="translate(-1.0795206,-1.190625)"><ellipse
       style="fill:#000000;stroke-width:0.620299;stroke-linecap:round;stroke-linejoin:round"
       id="path355"
       cx="66.050247"
       cy="66.168236"
       rx="14.728086"
       ry="14.688758" /></g><g
     inkscape:groupmode="layer"
     id="g360"
     inkscape:label="Ebene 2"
     transform="translate(-1.0795206,-1.190625)" /></svg>
